<?xml version="1.0" standalone="no"?>
<!DOCTYPE svg PUBLIC "-//W3C//DTD SVG 20010904//EN"
 "http://www.w3.org/TR/2001/REC-SVG-20010904/DTD/svg10.dtd">
<svg version="1.0" xmlns="http://www.w3.org/2000/svg"
 width="275.000000pt" height="275.000000pt" viewBox="0 0 275.000000 275.000000"
 preserveAspectRatio="xMidYMid meet">
<metadata>
Created by potrace 1.11, written by Peter Selinger 2001-2013
</metadata>
<g transform="translate(0.000000,275.000000) scale(0.100000,-0.100000)"
fill="#000000" stroke="none">
<path d="M563 2595 c-171 -52 -276 -198 -269 -374 5 -143 83 -261 216 -325 58
-28 75 -31 155 -31 80 0 97 4 155 31 83 39 145 101 184 184 28 58 31 75 31
155 0 80 -3 97 -31 155 -63 132 -182 211 -323 216 -42 1 -95 -4 -118 -11z"/>
<path d="M1344 2588 c-98 -33 -170 -98 -218 -198 -28 -58 -31 -75 -31 -155 0
-80 4 -97 31 -155 39 -83 101 -145 184 -184 56 -26 77 -31 145 -31 94 0 115 4
182 39 69 35 130 99 167 176 27 58 31 75 31 155 0 80 -3 97 -31 155 -48 100
-121 166 -219 198 -77 25 -165 25 -241 0z"/>
<path d="M2480 1675 l-265 -152 0 -308 0 -308 265 -162 265 -162 3 314 c1 173
1 453 0 623 l-3 308 -265 -153z"/>
<path d="M105 1803 c-34 -9 -72 -41 -89 -77 -14 -30 -16 -95 -16 -553 0 -482
2 -521 19 -559 13 -28 30 -46 57 -59 36 -18 67 -20 417 -21 207 0 379 -3 381
-5 2 -2 -4 -22 -15 -44 -46 -100 -139 -318 -136 -321 1 -2 108 81 238 184
l234 187 380 -1 c209 0 392 3 406 8 14 5 41 25 60 44 l34 35 3 537 c3 606 5
584 -74 629 l-39 23 -920 -1 c-506 -1 -929 -4 -940 -6z"/>
</g>
</svg>
